<?xml version="1.0" standalone="no"?>
<!DOCTYPE svg PUBLIC "-//W3C//DTD SVG 20010904//EN"
 "http://www.w3.org/TR/2001/REC-SVG-20010904/DTD/svg10.dtd">
<svg version="1.0" xmlns="http://www.w3.org/2000/svg"
 width="512.000000pt" height="512.000000pt" viewBox="0 0 512.000000 512.000000"
 preserveAspectRatio="xMidYMid meet">
<metadata>
Created by potrace 1.11, written by Peter Selinger 2001-2013
</metadata>
<g transform="translate(0.000000,512.000000) scale(0.100000,-0.100000)"
fill="#000000" stroke="none">
<path d="M2437 5094 c-1 -1 -36 -4 -77 -8 -178 -15 -257 -27 -410 -66 -517
-129 -963 -403 -1309 -805 -348 -403 -553 -887 -608 -1430 -8 -83 -7 -388 1
-455 4 -30 9 -73 12 -95 2 -22 6 -51 9 -65 2 -13 7 -42 10 -65 4 -22 10 -56
15 -75 5 -19 11 -46 14 -60 11 -57 58 -210 87 -285 16 -44 35 -93 41 -110 28
-76 156 -310 232 -424 269 -401 623 -701 1062 -900 108 -49 241 -100 304 -117
250 -67 356 -87 535 -101 528 -40 1041 78 1492 343 394 231 735 587 952 994
93 175 200 456 224 590 3 14 12 54 20 90 8 36 18 85 21 110 3 25 8 56 11 70 9
48 19 216 18 335 -1 577 -189 1116 -547 1570 -109 138 -319 343 -456 446 -339
254 -726 421 -1115 480 -38 6 -81 12 -95 14 -77 13 -432 28 -443 19z m13 -934
l0 -620 -22 4 c-13 3 -63 8 -113 11 -121 9 -154 12 -195 20 -19 3 -48 8 -65
11 -75 12 -89 15 -94 19 -4 2 -25 6 -49 10 -23 3 -75 15 -115 25 -39 11 -91
25 -114 31 -24 6 -43 16 -43 23 0 21 128 271 194 380 139 227 271 391 479 595
82 80 110 103 135 110 1 1 2 -278 2 -619z m312 553 c94 -89 148 -144 217 -222
31 -35 61 -69 66 -75 50 -52 208 -282 285 -415 44 -76 150 -294 150 -309 0 -8
-180 -61 -255 -76 -16 -4 -41 -9 -55 -12 -39 -8 -131 -23 -175 -29 -83 -11
-112 -14 -195 -21 -47 -3 -95 -7 -107 -9 l-23 -4 0 620 c0 398 4 619 10 619 5
0 42 -30 82 -67z m-763 -50 c-187 -202 -377 -488 -512 -772 -32 -69 -61 -127
-62 -129 -2 -2 -31 10 -64 27 -34 16 -61 28 -61 26 0 -6 -208 103 -307 161
l-93 55 47 51 c245 261 563 464 902 578 146 49 183 59 190 53 2 -1 -16 -24
-40 -50z m1257 2 c147 -48 320 -127 451 -206 49 -29 93 -57 98 -61 6 -5 43
-33 84 -63 87 -64 215 -178 284 -251 l48 -52 -83 -50 c-100 -60 -253 -139
-363 -186 l-80 -35 -71 147 c-86 178 -175 331 -281 478 -88 121 -95 130 -201
251 -85 97 -93 95 114 28z m-2346 -895 c101 -60 313 -165 393 -195 35 -13 46
-22 43 -34 -55 -177 -83 -285 -100 -386 -3 -14 -7 -33 -10 -43 -3 -9 -7 -37
-10 -62 -3 -25 -7 -54 -10 -65 -8 -39 -22 -199 -25 -275 l-1 -40 -424 0 -424
0 4 38 c31 333 98 581 224 832 41 82 119 220 130 230 3 3 18 24 33 48 l28 43
27 -17 c15 -10 70 -43 122 -74z m3535 -40 c66 -108 131 -237 178 -355 38 -96
101 -304 111 -369 4 -21 9 -49 12 -62 3 -13 7 -36 9 -51 11 -109 18 -177 19
-196 l1 -22 -422 -3 -423 -2 -1 42 c-2 76 -7 131 -18 213 -6 45 -14 99 -16
120 -12 96 -91 422 -122 501 -2 6 17 19 44 29 83 30 323 153 433 219 l105 65
18 -21 c10 -12 42 -60 72 -108z m-2675 -309 c185 -47 468 -89 618 -92 l62 -2
0 -328 0 -329 -521 0 -522 0 7 88 c13 158 21 220 47 357 18 91 69 288 90 342
l8 22 68 -20 c37 -11 102 -28 143 -38z m1827 -53 c56 -189 93 -395 109 -610
l6 -88 -521 0 -521 0 0 328 0 328 53 2 c220 9 571 68 752 127 39 13 74 22 80
21 5 -2 24 -50 42 -108z m-2406 -975 c1 -61 1 -64 14 -183 4 -41 9 -86 10
-100 2 -14 8 -54 15 -90 7 -36 14 -76 17 -90 11 -62 55 -233 76 -296 l22 -71
-45 -18 c-98 -40 -311 -148 -420 -213 l-115 -70 -24 31 c-80 99 -215 362 -276
537 -40 115 -81 277 -90 354 -4 28 -8 52 -10 56 -2 3 -6 37 -9 76 -4 39 -8 85
-11 102 l-4 32 425 0 424 0 1 -57z m1259 -271 l0 -329 -42 -1 c-121 -5 -219
-15 -363 -37 -137 -21 -290 -57 -477 -112 -13 -4 -21 11 -41 74 -37 117 -79
310 -93 428 -3 28 -7 56 -10 63 -2 8 -7 65 -10 128 l-6 114 521 0 521 0 0
-328z m1257 231 c-12 -184 -41 -362 -93 -563 -20 -74 -39 -138 -42 -142 -4 -4
-71 10 -148 32 -78 21 -156 41 -175 44 -19 3 -56 10 -84 15 -72 15 -100 20
-190 31 -137 16 -168 19 -237 21 l-68 2 0 329 0 328 521 0 522 0 -6 -97z
m1068 75 c-2 -13 -6 -58 -9 -102 -24 -300 -166 -699 -345 -974 -60 -91 -62
-94 -84 -79 -131 85 -392 223 -507 267 -19 7 -39 16 -43 20 -5 4 0 34 9 66 10
33 19 64 21 69 59 206 110 528 112 708 l1 47 424 0 425 0 -4 -22z m-2325
-1473 l0 -614 -32 6 c-23 5 -64 38 -148 122 -64 64 -138 143 -165 176 -28 33
-52 62 -55 65 -3 3 -17 21 -30 40 -13 19 -30 40 -36 47 -25 26 -164 242 -204
318 -23 44 -48 89 -55 100 -31 51 -95 209 -88 215 8 9 100 38 143 46 14 3 50
11 80 19 30 8 71 17 90 20 19 3 42 8 50 10 8 2 31 6 50 9 19 2 55 8 80 11 82
13 94 14 195 21 55 3 102 8 104 10 18 16 21 -83 21 -621z m365 611 c44 -4 91
-8 105 -11 14 -2 45 -7 70 -9 45 -5 54 -7 160 -27 85 -16 324 -79 333 -88 9
-9 -9 -54 -83 -202 -101 -201 -256 -435 -401 -604 -58 -66 -266 -275 -276
-276 -4 0 -18 -2 -30 -5 l-23 -4 0 613 c0 338 3 616 6 619 3 3 17 5 32 3 15
-2 63 -6 107 -9z m1120 -317 c66 -33 157 -83 203 -111 l82 -51 -57 -61 c-112
-118 -336 -298 -462 -370 -148 -86 -384 -188 -516 -224 -97 -27 -90 -28 -58 8
15 18 34 39 42 47 72 74 280 369 348 493 67 121 101 189 142 281 l44 97 56
-25 c31 -13 110 -51 176 -84z m-2496 64 c21 -61 143 -300 206 -403 79 -131
181 -273 282 -392 46 -55 83 -102 80 -104 -3 -3 -67 16 -143 41 -235 78 -460
197 -657 347 -94 72 -297 265 -297 283 0 13 225 143 340 196 41 19 91 42 110
51 53 25 65 22 79 -19z"/>
</g>
</svg>
